<svg width="30" height="30" viewBox="0 0 30 30" fill="none" xmlns="http://www.w3.org/2000/svg">
<path d="M2.43047 29.0027H21.7383C22.5271 29.0027 23.1688 28.361 23.1688 27.5722V21.4186C23.1688 21.0966 22.9075 20.8352 22.5854 20.8352C22.2634 20.8352 22.002 21.0966 22.002 21.4186V27.5722C22.002 27.7169 21.883 27.8359 21.7383 27.8359H2.43047C2.28579 27.8359 2.16678 27.7169 2.16678 27.5722V3.59725C2.16678 3.45257 2.28579 3.33356 2.43047 3.33356H4.60768C4.84921 4.01146 5.49093 4.50034 6.25051 4.50034H17.9183C18.6779 4.50034 19.3196 4.01146 19.5611 3.33356H21.7383C21.883 3.33356 22.002 3.45257 22.002 3.59725V8.07652C22.002 8.39855 22.2634 8.65991 22.5854 8.65991C22.9075 8.65991 23.1688 8.39855 23.1688 8.07652V3.59725C23.1688 2.80851 22.5271 2.16678 21.7383 2.16678H19.5611C19.3196 1.48888 18.6779 1 17.9183 1H6.25051C5.49093 1 4.84921 1.48888 4.60768 2.16678H2.43047C1.64173 2.16678 1 2.80851 1 3.59725V27.5734C1 28.361 1.64173 29.0027 2.43047 29.0027ZM6.25051 2.16678H17.9183C18.2403 2.16678 18.5017 2.4293 18.5017 2.75017C18.5017 3.07103 18.2403 3.33356 17.9183 3.33356H6.25051C5.92848 3.33356 5.66712 3.07103 5.66712 2.75017C5.66712 2.4293 5.92848 2.16678 6.25051 2.16678Z" fill="#5046BF" stroke="#5046BF"/>
<path d="M18.5016 9.75136C18.5016 9.42933 18.2402 9.16797 17.9182 9.16797H6.25038C5.92835 9.16797 5.66699 9.42933 5.66699 9.75136C5.66699 10.0734 5.92835 10.3347 6.25038 10.3347H17.9182C18.2402 10.3347 18.5016 10.0734 18.5016 9.75136Z" fill="#5046BF" stroke="#5046BF"/>
<path d="M15.3349 15.5853C15.3349 15.2633 15.0736 15.002 14.7515 15.002H6.25038C5.92835 15.002 5.66699 15.2633 5.66699 15.5853C5.66699 15.9074 5.92835 16.1687 6.25038 16.1687H14.7515C15.0747 16.1687 15.3349 15.9074 15.3349 15.5853Z" fill="#5046BF" stroke="#5046BF"/>
<path d="M6.25038 20.8359C5.92835 20.8359 5.66699 21.0973 5.66699 21.4193C5.66699 21.7414 5.92835 22.0027 6.25038 22.0027H12.0843C12.4063 22.0027 12.6677 21.7414 12.6677 21.4193C12.6677 21.0973 12.4063 20.8359 12.0843 20.8359H6.25038Z" fill="#5046BF" stroke="#5046BF"/>
<path d="M16.7513 21.4183C16.8026 21.4183 16.8551 21.4113 16.9065 21.3973L19.6111 20.6518C19.7079 20.6249 19.7978 20.5736 19.8689 20.5013L28.4261 11.9429C29.1927 11.1752 29.1927 9.92673 28.4261 9.15899C27.6829 8.41575 26.3854 8.41575 25.6422 9.15899L17.085 17.7173C17.0138 17.7897 16.9625 17.8772 16.9357 17.9752L16.1901 20.6786C16.1341 20.8805 16.1912 21.0975 16.3394 21.2457C16.4491 21.3577 16.5985 21.4183 16.7513 21.4183ZM18.0184 18.4337L26.4671 9.98507C26.7704 9.68171 27.2978 9.68171 27.6012 9.98507C27.9139 10.2978 27.9139 10.8065 27.6012 11.1192L19.1525 19.5678L17.5879 19.9995L18.0184 18.4337Z" fill="#5046BF" stroke="#5046BF"/>
</svg>
