<svg enable-background="new 0 0 64 64" height="64px" id="Layer_1" version="1.1" viewBox="0 0 64 64" width="64px" xml:space="preserve" xmlns="http://www.w3.org/2000/svg" xmlns:xlink="http://www.w3.org/1999/xlink"><g><path d="M59.535,2.63H17.573c-2.45,0-4.427,1.992-4.427,4.428v3.949h0.025v35.735c0,0,0.256,1.962-0.712,4.064   c-0.101,0.227-0.225,0.458-0.36,0.688c-0.016,0.025-0.024,0.051-0.041,0.076c-0.004,0.004-0.007,0.004-0.013,0.007   c-0.596,0.974-1.526,1.909-3.004,2.488c1.048-2.347,1.064-4.25,1.064-7.011c-0.016-2.037-0.016-22.228-0.016-32.767   c-1.342-0.015-2.936-0.015-4.722-0.029c-4.371-0.023-5.187,3.629-5.331,5.321v31.704c0,0,0.02,1.642,0.319,2.818   c0.408,1.428,1.094,2.807,2.119,4.303c1.622,2.382,4.7,2.876,5.462,2.964h52.348c0.465-0.024,1.027-0.104,1.475-0.317   c1.314-0.765,2.203-2.178,2.203-3.812V7.058C63.963,4.622,61.984,2.63,59.535,2.63z M51.318,46.979c-1.844,0-26.303,0-26.303,0   s-1.399-0.191-1.358-1.358c0.023-0.656,0.384-1.356,1.358-1.356h26.362c0,0,1.852-0.147,1.83,1.357   C53.207,46.174,53.166,46.979,51.318,46.979z M51.318,40.078c-1.844,0-26.303,0-26.303,0s-1.399-0.195-1.358-1.358   c0.023-0.656,0.384-1.357,1.358-1.357h26.362c0,0,1.852-0.148,1.83,1.358C53.207,39.271,53.166,40.078,51.318,40.078z    M51.318,33.459c-1.844,0-26.303,0-26.303,0s-1.399-0.194-1.358-1.359c0.023-0.656,0.384-1.356,1.358-1.356h26.362   c0,0,1.852-0.148,1.83,1.358C53.207,32.654,53.166,33.459,51.318,33.459z M51.545,26.584c-1.846,0-26.302,0-26.302,0   s-1.4-0.194-1.358-1.359c0.02-0.656,0.382-1.356,1.358-1.356h26.361c0,0,1.852-0.148,1.83,1.358   C53.434,25.778,53.391,26.584,51.545,26.584z M51.545,19.739c-1.846,0-26.302,0-26.302,0s-1.4-0.195-1.358-1.359   c0.02-0.656,0.382-1.355,1.358-1.355h26.361c0,0,1.852-0.148,1.83,1.356C53.434,18.934,53.391,19.739,51.545,19.739z" fill="#5046BF"/></g></svg>