<svg width="32" height="30" viewBox="0 0 32 30" fill="none" xmlns="http://www.w3.org/2000/svg">
<path d="M19.333 28.0668V19.0447C19.333 18.5291 19.7807 18.1113 20.333 18.1113H29.9996C30.5519 18.1113 30.9996 18.5291 30.9996 19.0447V28.0668C30.9996 28.5823 30.5519 29.0001 29.9996 29.0001H20.333C19.7807 29.0001 19.333 28.5823 19.333 28.0668Z" stroke="#6667AB" stroke-width="2"/>
<path d="M1 28.0668V19.0447C1 18.5291 1.44771 18.1113 1.99999 18.1113H11.6666C12.2189 18.1113 12.6666 18.5291 12.6666 19.0447V28.0668C12.6666 28.5823 12.2189 29.0001 11.6666 29.0001H1.99999C1.44771 29.0001 1 28.5823 1 28.0668Z" stroke="#6667AB" stroke-width="2"/>
<path d="M19.333 10.9555V1.93333C19.333 1.41787 19.7807 1 20.333 1H29.9996C30.5519 1 30.9996 1.41787 30.9996 1.93333V10.9555C30.9996 11.4709 30.5519 11.8888 29.9996 11.8888H20.333C19.7807 11.8888 19.333 11.4709 19.333 10.9555Z" stroke="#6667AB" stroke-width="2"/>
<path d="M1 10.9555V1.93333C1 1.41787 1.44771 1 1.99999 1H11.6666C12.2189 1 12.6666 1.41787 12.6666 1.93333V10.9555C12.6666 11.4709 12.2189 11.8888 11.6666 11.8888H1.99999C1.44771 11.8888 1 11.4709 1 10.9555Z" stroke="#6667AB" stroke-width="2"/>
</svg>
