<svg width="50" height="50" viewBox="0 0 50 50" fill="none" xmlns="http://www.w3.org/2000/svg">
<circle cx="25" cy="25" r="25" fill="#6667AB"/>
<path d="M28.7832 11.828L28.0632 29.072H22.8432L22.1232 11.828H28.7832ZM25.5432 38.288C24.4632 38.288 23.5752 37.976 22.8792 37.352C22.2072 36.704 21.8712 35.912 21.8712 34.976C21.8712 34.016 22.2072 33.212 22.8792 32.564C23.5752 31.916 24.4632 31.592 25.5432 31.592C26.5992 31.592 27.4632 31.916 28.1352 32.564C28.8312 33.212 29.1792 34.016 29.1792 34.976C29.1792 35.912 28.8312 36.704 28.1352 37.352C27.4632 37.976 26.5992 38.288 25.5432 38.288Z" fill="white"/>
</svg>
