<svg width="9" height="28" viewBox="0 0 9 28" fill="none" xmlns="http://www.w3.org/2000/svg">
<path d="M7.78317 0.827998L7.06317 18.072H1.84317L1.12317 0.827998H7.78317ZM4.54317 27.288C3.46317 27.288 2.57517 26.976 1.87917 26.352C1.20717 25.704 0.871172 24.912 0.871172 23.976C0.871172 23.016 1.20717 22.212 1.87917 21.564C2.57517 20.916 3.46317 20.592 4.54317 20.592C5.59917 20.592 6.46317 20.916 7.13517 21.564C7.83117 22.212 8.17917 23.016 8.17917 23.976C8.17917 24.912 7.83117 25.704 7.13517 26.352C6.46317 26.976 5.59917 27.288 4.54317 27.288Z" fill="white"/>
</svg>
