<svg width="50" height="50" viewBox="0 0 50 50" fill="none" xmlns="http://www.w3.org/2000/svg">
<g clip-path="url(#clip0_483_171)">
<circle cx="25" cy="25" r="25" fill="#6667AB"/>
<circle cx="25" cy="25" r="20" fill="white"/>
<path d="M13.5157 5C8.92255 5 4.01078 10.9713 4.01078 15.5L4.01074 33.1143C4.01074 37.643 13.0805 46 17.6737 46H34.3069C38.9 46 44.9996 41.1573 44.9996 36.6286V15.5C44.9996 10.9713 40.6821 5 36.089 5H13.5157ZM10.6473 10.8571H20.0777L26.7746 20.24L34.9009 10.8571H37.8711L28.1158 22.1184L40.1452 38.9714H30.7171L22.9458 28.0854L13.5154 38.9714H10.5452L21.6046 26.207L10.6473 10.8571ZM15.1954 13.2L31.9562 36.6286H35.597L18.8362 13.2H15.1954Z" fill="#6667AB"/>
</g>
<defs>
<clipPath id="clip0_483_171">
<rect width="50" height="50" fill="white"/>
</clipPath>
</defs>
</svg>
